<svg xmlns="http://www.w3.org/2000/svg" xmlns:xlink="http://www.w3.org/1999/xlink" width="100" zoomAndPan="magnify" viewBox="0 0 75 74.999997" height="100" preserveAspectRatio="xMidYMid meet" version="1.0"><defs><clipPath id="f35876c5d0"><path d="M 0 3.273438 L 36 3.273438 L 36 63 L 0 63 Z M 0 3.273438 " clip-rule="nonzero"/></clipPath><clipPath id="3639b6af45"><path d="M 38 7 L 74 7 L 74 67.773438 L 38 67.773438 Z M 38 7 " clip-rule="nonzero"/></clipPath></defs><g clip-path="url(#f35876c5d0)"><path fill="#737373" d="M 33.953125 52.96875 C 30.679688 59.8125 22.21875 63.101562 14.714844 61.96875 C 11.648438 61.515625 8.621094 60.398438 6.273438 58.386719 C 0.925781 53.878906 0.0742188 46.007812 0.398438 39.003906 C 0.75 31.496094 2.042969 23.875 5.566406 17.238281 C 9.089844 10.601562 15.097656 5.019531 22.410156 3.273438 L 24.628906 11.203125 C 24.628906 11.203125 18.488281 12.730469 12.792969 22.703125 C 9.546875 28.382812 10.792969 34.300781 10.792969 34.300781 L 11.207031 33.847656 C 21.71875 27.5625 26.449219 31.6875 30.722656 36.078125 C 34.335938 39.796875 36.597656 47.429688 33.953125 52.96875 Z M 33.953125 52.96875 " fill-opacity="1" fill-rule="nonzero"/></g><g clip-path="url(#3639b6af45)"><path fill="#a6a6a6" d="M 72.753906 56.167969 C 69.742188 64.113281 63.222656 66.84375 54.6875 67.316406 C 51.589844 67.492188 46.964844 65.757812 44.613281 63.761719 C 39.269531 59.222656 38.125 50.117188 38.066406 43.113281 C 38.007812 35.652344 40.019531 26.167969 43.558594 19.53125 C 46.921875 13.214844 52.207031 9.660156 59.035156 7.664062 C 59.609375 7.488281 60.226562 7.808594 60.417969 8.382812 L 62.957031 15.386719 C 62.957031 15.386719 54.703125 16.476562 50.296875 25.023438 C 46.070312 33.230469 48.550781 37.929688 48.550781 37.929688 L 48.960938 37.476562 C 58.226562 31.792969 64.042969 34.890625 66.789062 36.636719 C 73.898438 41.175781 74.925781 50.441406 72.753906 56.167969 Z M 72.753906 56.167969 " fill-opacity="1" fill-rule="nonzero"/></g></svg>