<svg xmlns="http://www.w3.org/2000/svg" xmlns:xlink="http://www.w3.org/1999/xlink" id="Capa_1" x="0px" y="0px" viewBox="0 0 480 480" style="enable-background:new 0 0 480 480;" xml:space="preserve">
<g><g><path d="M72,72c-13.255,0-24-10.745-24-24c0-4.418-3.582-8-8-8s-8,3.582-8,8c0,13.255-10.745,24-24,24c-4.418,0-8,3.582-8,8s3.582,8,8,8c13.255,0,24,10.745,24,24c0,4.418,3.582,8,8,8s8-3.582,8-8c0-13.255,10.745-24,24-24c4.418,0,8-3.582,8-8S76.418,72,72,72z M40,88c-2.278-3.029-4.971-5.722-8-8c3.029-2.278,5.722-4.971,8-8c2.278,3.029,4.971,5.722,8,8C44.971,82.278,42.278,84.971,40,88z"/></g></g>
<g><g><rect x="112" width="16" height="16"/></g></g>
<g><g><rect x="112" y="32" width="16" height="16"/></g></g>
<g><g><rect x="96" y="16" width="16" height="16"/></g></g>
<g><g><rect x="128" y="16" width="16" height="16"/></g></g>
<g><g><path d="M472,392c-13.255,0-24-10.745-24-24c0-4.418-3.582-8-8-8s-8,3.582-8,8c0,13.255-10.745,24-24,24c-4.418,0-8,3.582-8,8s3.582,8,8,8c13.255,0,24,10.745,24,24c0,4.418,3.582,8,8,8s8-3.582,8-8c0-13.255,10.745-24,24-24c4.418,0,8-3.582,8-8S476.418,392,472,392z M440,408c-2.278-3.029-4.971-5.722-8-8c3.029-2.278,5.722-4.971,8-8c2.278,3.029,4.971,5.722,8,8C444.971,402.278,442.278,404.971,440,408z"/></g></g>
<g><g><rect x="352" y="464" width="16" height="16"/></g></g>
<g><g><rect x="352" y="432" width="16" height="16"/></g></g>
<g><g><rect x="368" y="448" width="16" height="16"/></g></g>
<g><g><rect x="336" y="448" width="16" height="16"/></g></g>
<g><g><path d="M429.656,50.344c-7.344-7.344-19.864-7.2-38.064,0.216c-11.604-13.159-31.679-14.42-44.838-2.815c-9.671,8.529-13.228,22.057-9.002,34.239c-5.152,3.611-10.435,7.435-15.848,11.472c-80.813-45.351-183.09-16.603-228.441,64.21c-28.654,51.059-28.62,113.362,0.089,164.39C51.368,378.68,37.072,414.616,51.2,428.8c3.925,3.655,9.173,5.548,14.528,5.24c21.896,0,57.6-21.872,92.048-47.64c80.715,45.534,183.061,17.015,228.596-63.701c28.796-51.045,28.874-113.415,0.204-164.531C420.312,113.4,446.808,67.496,429.656,50.344z M368,56c8.837,0,16,7.163,16,16s-7.163,16-16,16s-16-7.163-16-16S359.163,56,368,56z M346.4,95.424c12.888,11.996,33.06,11.272,45.056-1.616C396.968,87.886,400.022,80.09,400,72c-0.018-2.443-0.322-4.875-0.904-7.248c12.92-5.08,18.248-4.096,19.248-3.096c5.424,5.424-6.808,35.016-41.024,81.872c-11.193-15.88-25.035-29.717-40.92-40.904C339.8,100.128,343.12,97.76,346.4,95.424z M62.544,417.456c-2.4-2.4-1.968-23.2,40.192-80.912c11.144,15.79,24.908,29.557,40.696,40.704C96.8,411.2,67.936,422.816,62.544,417.456z M156.952,367.152c-70.282-45.804-90.125-139.91-44.321-210.191C140.689,113.909,188.612,87.962,240,88c51.34,0.034,99.189,25.999,127.2,69.024c-23.81,30.678-49.252,60.054-76.216,88C285.18,241.778,278.65,240.05,272,240c-22.08,0.026-39.974,17.92-40,40c0.047,6.528,1.71,12.943,4.84,18.672C206.904,326.744,180.04,349.456,156.952,367.152z M296,280c0,13.255-10.745,24-24,24s-24-10.745-24-24s10.745-24,24-24S296,266.745,296,280z M392,240c0.173,83.775-67.599,151.828-151.374,152.002c-23.91,0.049-47.494-5.554-68.826-16.354c32.688-25.6,62.248-52.48,75.28-64.616c7.031,5.762,15.83,8.929,24.92,8.968c22.08-0.026,39.974-17.92,40-40c-0.039-8.965-3.119-17.652-8.736-24.64c13.32-14.04,44.056-47.2,72.528-83.256C386.431,193.157,391.982,216.412,392,240z"/></g></g>
<g><g><path d="M178.568,149.432c-6.073-5.401-14.619-7.035-22.256-4.256c-8.257,2.565-15.734,7.168-21.744,13.384c-15.144,15.144-19.072,34.056-9.136,44c3.796,3.642,8.902,5.598,14.16,5.424c2.739-0.019,5.463-0.412,8.096-1.168c8.257-2.565,15.734-7.168,21.744-13.384C184.576,178.288,188.504,159.376,178.568,149.432z M158.12,182.12c-4.076,4.257-9.137,7.447-14.736,9.288c-3.496,0.984-5.856,0.632-6.64-0.16c-2.096-2.096-0.176-12.056,9.136-21.368c4.076-4.257,9.137-7.447,14.736-9.288c3.496-0.968,5.856-0.616,6.64,0.16C169.352,162.848,167.432,172.808,158.12,182.12z"/></g></g>
</svg>
