<svg width="137" height="48" viewBox="0 0 137 48" fill="none" xmlns="http://www.w3.org/2000/svg">
<path d="M21.2461 24.1538C21.2461 25.6714 20.9871 27.0565 20.4692 28.3091C19.9513 29.5617 19.2467 30.6396 18.3555 31.543C17.4642 32.4342 16.4163 33.1268 15.2119 33.6206C14.0195 34.1144 12.7368 34.3613 11.3638 34.3613C10.0028 34.3613 8.72005 34.1084 7.51562 33.6025C6.32324 33.0967 5.27539 32.3921 4.37207 31.4888C3.48079 30.5854 2.7762 29.5135 2.2583 28.2729C1.7404 27.0203 1.48145 25.6473 1.48145 24.1538V6.95459H6.43164V15.9878C6.69661 15.6506 7.01579 15.3494 7.38916 15.0845C7.77458 14.8195 8.18408 14.6027 8.61768 14.4341C9.06331 14.2655 9.521 14.139 9.99072 14.0547C10.4604 13.9583 10.9181 13.9102 11.3638 13.9102C12.7368 13.9102 14.0195 14.1691 15.2119 14.687C16.4163 15.1929 17.4642 15.9035 18.3555 16.8188C19.2467 17.7342 19.9513 18.8182 20.4692 20.0708C20.9871 21.3114 21.2461 22.6724 21.2461 24.1538ZM16.2778 24.1538C16.2778 23.4071 16.1453 22.7145 15.8804 22.0762C15.6274 21.4258 15.2782 20.8657 14.8325 20.396C14.3869 19.9263 13.863 19.5589 13.2607 19.2939C12.6706 19.029 12.0382 18.8965 11.3638 18.8965C10.6893 18.8965 10.0509 19.047 9.44873 19.3481C8.85856 19.6372 8.34066 20.0286 7.89502 20.5225C7.44938 21.0042 7.1001 21.5643 6.84717 22.2026C6.59424 22.8289 6.46777 23.4793 6.46777 24.1538C6.46777 24.9006 6.59424 25.5931 6.84717 26.2314C7.1001 26.8698 7.44938 27.4238 7.89502 27.8936C8.34066 28.3633 8.85856 28.7367 9.44873 29.0137C10.0509 29.2786 10.6893 29.4111 11.3638 29.4111C12.0382 29.4111 12.6706 29.2786 13.2607 29.0137C13.863 28.7367 14.3869 28.3633 14.8325 27.8936C15.2782 27.4238 15.6274 26.8698 15.8804 26.2314C16.1453 25.5931 16.2778 24.9006 16.2778 24.1538ZM42.7271 34H41.5347L39.6196 31.3442C39.1499 31.7658 38.6501 32.1632 38.1201 32.5366C37.6022 32.8979 37.0542 33.2171 36.4761 33.4941C35.8979 33.7591 35.3018 33.9699 34.6875 34.1265C34.0853 34.283 33.471 34.3613 32.8447 34.3613C31.4837 34.3613 30.201 34.1325 28.9966 33.6748C27.8042 33.2171 26.7563 32.5547 25.853 31.6875C24.9618 30.8083 24.2572 29.7363 23.7393 28.4717C23.2214 27.207 22.9624 25.7677 22.9624 24.1538C22.9624 22.6483 23.2214 21.2692 23.7393 20.0166C24.2572 18.752 24.9618 17.668 25.853 16.7646C26.7563 15.8613 27.8042 15.1628 28.9966 14.6689C30.201 14.1631 31.4837 13.9102 32.8447 13.9102C33.471 13.9102 34.0913 13.9884 34.7056 14.145C35.3198 14.3016 35.916 14.5184 36.4941 14.7954C37.0723 15.0724 37.6203 15.3976 38.1382 15.771C38.6681 16.1444 39.1619 16.5479 39.6196 16.9814L41.5347 14.687H42.7271V34ZM37.7588 24.1538C37.7588 23.4793 37.6263 22.8289 37.3613 22.2026C37.1084 21.5643 36.7591 21.0042 36.3135 20.5225C35.8678 20.0286 35.3439 19.6372 34.7417 19.3481C34.1515 19.047 33.5192 18.8965 32.8447 18.8965C32.1702 18.8965 31.5319 19.0109 30.9297 19.2397C30.3395 19.4686 29.8216 19.8058 29.376 20.2515C28.9424 20.6971 28.5991 21.2511 28.3462 21.9136C28.0933 22.564 27.9668 23.3107 27.9668 24.1538C27.9668 24.9969 28.0933 25.7497 28.3462 26.4121C28.5991 27.0625 28.9424 27.6105 29.376 28.0562C29.8216 28.5018 30.3395 28.839 30.9297 29.0679C31.5319 29.2967 32.1702 29.4111 32.8447 29.4111C33.5192 29.4111 34.1515 29.2666 34.7417 28.9775C35.3439 28.6764 35.8678 28.285 36.3135 27.8032C36.7591 27.3094 37.1084 26.7493 37.3613 26.123C37.6263 25.4847 37.7588 24.8283 37.7588 24.1538ZM63.4131 18.499L59.7998 22.1304C59.6191 21.6245 59.3722 21.1729 59.0591 20.7754C58.7459 20.3659 58.3906 20.0226 57.9932 19.7456C57.6077 19.4686 57.1862 19.2578 56.7285 19.1133C56.2708 18.9688 55.8011 18.8965 55.3193 18.8965C54.6449 18.8965 54.0065 19.035 53.4043 19.312C52.8141 19.589 52.2962 19.9805 51.8506 20.4863C51.417 20.9801 51.0737 21.5703 50.8208 22.2568C50.5679 22.9434 50.4414 23.7021 50.4414 24.5332C50.4414 25.2077 50.5679 25.84 50.8208 26.4302C51.0737 27.0203 51.417 27.5382 51.8506 27.9839C52.2962 28.4295 52.8141 28.7788 53.4043 29.0317C54.0065 29.2847 54.6449 29.4111 55.3193 29.4111C55.8011 29.4111 56.2648 29.3449 56.7104 29.2124C57.1561 29.0799 57.5716 28.8932 57.957 28.6523C58.3545 28.3994 58.7038 28.0983 59.0049 27.749C59.318 27.3877 59.571 26.9902 59.7637 26.5566L63.377 30.188C62.9193 30.8384 62.3893 31.4225 61.7871 31.9404C61.1969 32.4583 60.5526 32.8979 59.854 33.2593C59.1675 33.6206 58.4388 33.8916 57.668 34.0723C56.9092 34.265 56.1263 34.3613 55.3193 34.3613C53.9583 34.3613 52.6756 34.1084 51.4712 33.6025C50.2788 33.0846 49.231 32.38 48.3276 31.4888C47.4364 30.5975 46.7318 29.5557 46.2139 28.3633C45.696 27.1709 45.437 25.8942 45.437 24.5332C45.437 23.0518 45.696 21.6667 46.2139 20.3779C46.7318 19.0892 47.4364 17.9691 48.3276 17.0176C49.231 16.054 50.2788 15.2952 51.4712 14.7412C52.6756 14.1872 53.9583 13.9102 55.3193 13.9102C56.1263 13.9102 56.9152 14.0125 57.686 14.2173C58.4689 14.422 59.2096 14.7231 59.9082 15.1206C60.6188 15.506 61.2692 15.9818 61.8594 16.5479C62.4616 17.1139 62.9795 17.7643 63.4131 18.499ZM70.8022 34H65.834V6.95459H70.8022V24.0093L78.1553 14.687H83.8281L77.4146 22.7446L83.8281 34H78.1553L74.2349 26.9722L70.8022 31.5249V34ZM90.7476 34H85.7793V6.95459H90.7476V34ZM113.222 24.1538C113.222 25.5991 112.963 26.9481 112.445 28.2007C111.927 29.4412 111.223 30.5192 110.332 31.4346C109.44 32.3379 108.392 33.0545 107.188 33.5845C105.996 34.1024 104.713 34.3613 103.34 34.3613C101.979 34.3613 100.696 34.1024 99.4917 33.5845C98.2993 33.0545 97.2515 32.3379 96.3481 31.4346C95.4569 30.5192 94.7523 29.4412 94.2344 28.2007C93.7165 26.9481 93.4575 25.5991 93.4575 24.1538C93.4575 22.6844 93.7165 21.3234 94.2344 20.0708C94.7523 18.8182 95.4569 17.7402 96.3481 16.8369C97.2515 15.9215 98.2993 15.2049 99.4917 14.687C100.696 14.1691 101.979 13.9102 103.34 13.9102C104.713 13.9102 105.996 14.1571 107.188 14.6509C108.392 15.1326 109.44 15.8252 110.332 16.7285C111.223 17.6198 111.927 18.6978 112.445 19.9624C112.963 21.215 113.222 22.6121 113.222 24.1538ZM108.254 24.1538C108.254 23.3589 108.121 22.6423 107.856 22.0039C107.604 21.3535 107.254 20.7995 106.809 20.3418C106.363 19.8721 105.839 19.5168 105.237 19.2759C104.647 19.0229 104.014 18.8965 103.34 18.8965C102.665 18.8965 102.027 19.0229 101.425 19.2759C100.835 19.5168 100.317 19.8721 99.8711 20.3418C99.4375 20.7995 99.0942 21.3535 98.8413 22.0039C98.5884 22.6423 98.4619 23.3589 98.4619 24.1538C98.4619 24.9006 98.5884 25.5931 98.8413 26.2314C99.0942 26.8698 99.4375 27.4238 99.8711 27.8936C100.317 28.3633 100.835 28.7367 101.425 29.0137C102.027 29.2786 102.665 29.4111 103.34 29.4111C104.014 29.4111 104.647 29.2847 105.237 29.0317C105.839 28.7788 106.363 28.4235 106.809 27.9658C107.254 27.5081 107.604 26.9541 107.856 26.3037C108.121 25.6533 108.254 24.9367 108.254 24.1538ZM129.717 24.1538C129.717 23.4793 129.584 22.8289 129.319 22.2026C129.066 21.5643 128.717 21.0042 128.271 20.5225C127.826 20.0286 127.302 19.6372 126.7 19.3481C126.11 19.047 125.477 18.8965 124.803 18.8965C124.128 18.8965 123.49 19.0109 122.888 19.2397C122.298 19.4686 121.78 19.8058 121.334 20.2515C120.9 20.6971 120.557 21.2511 120.304 21.9136C120.051 22.564 119.925 23.3107 119.925 24.1538C119.925 24.9608 120.051 25.6895 120.304 26.3398C120.557 26.9782 120.9 27.5262 121.334 27.9839C121.78 28.4416 122.298 28.7969 122.888 29.0498C123.49 29.2907 124.128 29.4111 124.803 29.4111C125.477 29.4111 126.11 29.2666 126.7 28.9775C127.302 28.6764 127.826 28.285 128.271 27.8032C128.717 27.3094 129.066 26.7493 129.319 26.123C129.584 25.4847 129.717 24.8283 129.717 24.1538ZM134.685 31.561C134.685 32.922 134.426 34.1987 133.908 35.3911C133.39 36.5835 132.68 37.6253 131.776 38.5166C130.885 39.4079 129.837 40.1125 128.633 40.6304C127.44 41.1483 126.164 41.4072 124.803 41.4072L122.328 41.3711V36.439L124.767 36.4751C125.537 36.4751 126.194 36.3727 126.736 36.168C127.278 35.9753 127.736 35.7043 128.109 35.355C128.482 35.0177 128.777 34.6263 128.994 34.1807C129.223 33.735 129.404 33.2653 129.536 32.7715C129.343 33.0846 129.066 33.3436 128.705 33.5483C128.344 33.741 127.94 33.8976 127.495 34.0181C127.061 34.1506 126.603 34.2409 126.122 34.2891C125.652 34.3372 125.212 34.3613 124.803 34.3613C123.442 34.3613 122.159 34.1265 120.955 33.6567C119.762 33.187 118.714 32.5186 117.811 31.6514C116.92 30.7721 116.215 29.7002 115.697 28.4355C115.179 27.1709 114.92 25.7437 114.92 24.1538C114.92 22.6965 115.179 21.3415 115.697 20.0889C116.215 18.8363 116.92 17.7523 117.811 16.8369C118.714 15.9215 119.762 15.2049 120.955 14.687C122.159 14.1691 123.442 13.9102 124.803 13.9102C125.429 13.9102 126.049 13.9884 126.664 14.145C127.278 14.3016 127.874 14.5184 128.452 14.7954C129.03 15.0724 129.578 15.3976 130.096 15.771C130.626 16.1444 131.12 16.5479 131.578 16.9814L133.493 14.687H134.685V31.561Z" fill="#8AD4B4"/>
<path d="M83.7926 46V39.4545H84.5469V41.8707H84.6108C84.6662 41.7855 84.7429 41.6768 84.8409 41.5447C84.9411 41.4105 85.0838 41.2912 85.2692 41.1868C85.4567 41.0803 85.7102 41.027 86.0298 41.027C86.4432 41.027 86.8075 41.1303 87.1229 41.337C87.4382 41.5437 87.6843 41.8366 87.8612 42.2159C88.038 42.5952 88.1264 43.0426 88.1264 43.5582C88.1264 44.0781 88.038 44.5288 87.8612 44.9102C87.6843 45.2894 87.4393 45.5835 87.1261 45.7923C86.8129 45.9989 86.4517 46.1023 86.0426 46.1023C85.7273 46.1023 85.4748 46.0501 85.2852 45.9457C85.0955 45.8391 84.9496 45.7187 84.8473 45.5845C84.745 45.4482 84.6662 45.3352 84.6108 45.2457H84.5213V46H83.7926ZM84.5341 43.5455C84.5341 43.9162 84.5884 44.2433 84.6971 44.5266C84.8058 44.8079 84.9645 45.0284 85.1733 45.1882C85.3821 45.3459 85.6378 45.4247 85.9403 45.4247C86.2557 45.4247 86.5188 45.3416 86.7298 45.1754C86.9428 45.0071 87.1026 44.7812 87.2092 44.4979C87.3178 44.2124 87.3722 43.8949 87.3722 43.5455C87.3722 43.2003 87.3189 42.8892 87.2124 42.6122C87.108 42.3331 86.9492 42.1126 86.7362 41.9506C86.5252 41.7866 86.2599 41.7045 85.9403 41.7045C85.6335 41.7045 85.3757 41.7823 85.1669 41.9379C84.9581 42.0913 84.8004 42.3065 84.6939 42.5835C84.5874 42.8583 84.5341 43.179 84.5341 43.5455ZM89.5902 47.8409C89.4624 47.8409 89.3484 47.8303 89.2482 47.8089C89.1481 47.7898 89.0788 47.7706 89.0405 47.7514L89.2322 47.0866C89.4155 47.1335 89.5774 47.1506 89.718 47.1378C89.8587 47.125 89.9833 47.0621 90.092 46.9492C90.2028 46.8384 90.304 46.6584 90.3956 46.4091L90.5362 46.0256L88.7209 41.0909H89.5391L90.8942 45.0028H90.9453L92.3004 41.0909H93.1186L91.0348 46.7159C90.9411 46.9695 90.8249 47.1793 90.6864 47.3455C90.5479 47.5138 90.3871 47.6385 90.2038 47.7195C90.0227 47.8004 89.8182 47.8409 89.5902 47.8409ZM97.3997 43.0469V46H96.6454V41.0909H97.3741V41.858H97.438C97.5531 41.6087 97.7278 41.4084 97.9622 41.2571C98.1966 41.1037 98.4991 41.027 98.8699 41.027C99.2022 41.027 99.4931 41.0952 99.7424 41.2315C99.9917 41.3658 100.186 41.5703 100.324 41.8452C100.463 42.1179 100.532 42.4631 100.532 42.8807V46H99.7775V42.9318C99.7775 42.5462 99.6774 42.2457 99.4771 42.0305C99.2768 41.8132 99.002 41.7045 98.6525 41.7045C98.4118 41.7045 98.1966 41.7567 98.0069 41.8612C97.8194 41.9656 97.6713 42.1179 97.5627 42.3182C97.454 42.5185 97.3997 42.7614 97.3997 43.0469ZM105.004 43.9929V41.0909H105.758V46H105.004V45.169H104.953C104.838 45.4183 104.659 45.6303 104.416 45.805C104.173 45.9776 103.866 46.0639 103.495 46.0639C103.188 46.0639 102.916 45.9968 102.677 45.8626C102.438 45.7262 102.251 45.5217 102.115 45.2489C101.978 44.9741 101.91 44.6278 101.91 44.2102V41.0909H102.664V44.1591C102.664 44.517 102.764 44.8026 102.965 45.0156C103.167 45.2287 103.425 45.3352 103.738 45.3352C103.926 45.3352 104.116 45.2873 104.31 45.1914C104.506 45.0955 104.67 44.9485 104.802 44.7504C104.937 44.5522 105.004 44.2997 105.004 43.9929ZM107.894 39.4545V46H107.14V39.4545H107.894ZM110.72 46.1151C110.409 46.1151 110.127 46.0565 109.873 45.9393C109.619 45.82 109.418 45.6484 109.269 45.4247C109.12 45.1989 109.045 44.9261 109.045 44.6065C109.045 44.3253 109.101 44.0973 109.211 43.9226C109.322 43.7457 109.47 43.6072 109.656 43.5071C109.841 43.407 110.046 43.3324 110.269 43.2834C110.495 43.2322 110.722 43.1918 110.95 43.1619C111.248 43.1236 111.49 43.0948 111.676 43.0756C111.863 43.0543 111.999 43.0192 112.085 42.9702C112.172 42.9212 112.216 42.8359 112.216 42.7145V42.6889C112.216 42.3736 112.129 42.1286 111.957 41.9538C111.786 41.7791 111.527 41.6918 111.18 41.6918C110.82 41.6918 110.538 41.7706 110.333 41.9283C110.129 42.0859 109.985 42.2543 109.902 42.4332L109.186 42.1776C109.314 41.8793 109.484 41.647 109.697 41.4808C109.912 41.3125 110.147 41.1953 110.4 41.1293C110.656 41.0611 110.907 41.027 111.155 41.027C111.312 41.027 111.493 41.0462 111.698 41.0845C111.905 41.1207 112.104 41.1964 112.296 41.3114C112.489 41.4265 112.65 41.6001 112.778 41.8324C112.906 42.0646 112.97 42.3757 112.97 42.7656V46H112.216V45.3352H112.177C112.126 45.4418 112.041 45.5558 111.922 45.6772C111.802 45.7987 111.644 45.902 111.445 45.9872C111.247 46.0724 111.005 46.1151 110.72 46.1151ZM110.835 45.4375C111.133 45.4375 111.385 45.3789 111.589 45.2617C111.796 45.1445 111.951 44.9933 112.056 44.8079C112.162 44.6225 112.216 44.4276 112.216 44.223V43.5327C112.184 43.571 112.113 43.6062 112.005 43.6381C111.898 43.668 111.775 43.6946 111.634 43.718C111.495 43.7393 111.36 43.7585 111.228 43.7756C111.098 43.7905 110.993 43.8033 110.912 43.8139C110.716 43.8395 110.532 43.881 110.362 43.9386C110.194 43.994 110.057 44.0781 109.953 44.1911C109.851 44.3018 109.799 44.4531 109.799 44.6449C109.799 44.907 109.896 45.1051 110.09 45.2393C110.286 45.3714 110.535 45.4375 110.835 45.4375ZM114.449 46V39.4545H115.203V41.8707H115.267C115.322 41.7855 115.399 41.6768 115.497 41.5447C115.597 41.4105 115.74 41.2912 115.925 41.1868C116.113 41.0803 116.366 41.027 116.686 41.027C117.099 41.027 117.464 41.1303 117.779 41.337C118.094 41.5437 118.341 41.8366 118.517 42.2159C118.694 42.5952 118.783 43.0426 118.783 43.5582C118.783 44.0781 118.694 44.5288 118.517 44.9102C118.341 45.2894 118.096 45.5835 117.782 45.7923C117.469 45.9989 117.108 46.1023 116.699 46.1023C116.384 46.1023 116.131 46.0501 115.941 45.9457C115.752 45.8391 115.606 45.7187 115.504 45.5845C115.401 45.4482 115.322 45.3352 115.267 45.2457H115.178V46H114.449ZM115.19 43.5455C115.19 43.9162 115.245 44.2433 115.353 44.5266C115.462 44.8079 115.621 45.0284 115.83 45.1882C116.038 45.3459 116.294 45.4247 116.597 45.4247C116.912 45.4247 117.175 45.3416 117.386 45.1754C117.599 45.0071 117.759 44.7812 117.865 44.4979C117.974 44.2124 118.028 43.8949 118.028 43.5455C118.028 43.2003 117.975 42.8892 117.869 42.6122C117.764 42.3331 117.605 42.1126 117.392 41.9506C117.181 41.7866 116.916 41.7045 116.597 41.7045C116.29 41.7045 116.032 41.7823 115.823 41.9379C115.614 42.0913 115.457 42.3065 115.35 42.5835C115.244 42.8583 115.19 43.179 115.19 43.5455Z" fill="#C2E8D7"/>
</svg>
