<svg width="167" height="23" viewBox="0 0 167 23" fill="none" xmlns="http://www.w3.org/2000/svg">
<path d="M-8.88109e-05 20.832V3.37742H3.16184V18.1814H10.8493V20.832H-8.88109e-05ZM16.7556 3.37742V20.832H13.5937V3.37742H16.7556ZM34.5233 3.37742V20.832H31.7108L23.4864 8.94277H23.3415V20.832H20.1796V3.37742H23.0091L31.2251 15.2752H31.3785V3.37742H34.5233ZM37.9687 20.832V3.37742H49.3209V6.02799H41.1306V10.7666H48.7329V13.4172H41.1306V18.1814H49.3891V20.832H37.9687ZM57.6652 2.03997C58.2892 2.11997 59.0412 2.23997 59.9212 2.39997C60.8172 2.54397 61.7612 2.71197 62.7532 2.90397C63.7612 3.09597 64.7612 3.31197 65.7532 3.55197C66.7612 3.77597 67.6892 3.99997 68.5372 4.22397C69.4012 4.44797 70.1372 4.66397 70.7452 4.87197L69.5212 7.87197C68.9612 7.66397 68.2652 7.44797 67.4332 7.22397C66.6012 6.98397 65.6972 6.74397 64.7212 6.50397C63.7452 6.26397 62.7612 6.03997 61.7692 5.83197C60.7772 5.62397 59.8252 5.43197 58.9132 5.25597C58.0172 5.07997 57.2252 4.95197 56.5372 4.87197L57.6652 2.03997ZM56.5612 8.49597C57.4252 8.63997 58.4172 8.82397 59.5372 9.04797C60.6572 9.27197 61.8092 9.51997 62.9932 9.79197C64.1772 10.048 65.3052 10.32 66.3772 10.608C67.4492 10.88 68.3612 11.152 69.1132 11.424L67.9372 14.424C67.2492 14.152 66.3772 13.872 65.3212 13.584C64.2812 13.296 63.1692 13.008 61.9852 12.72C60.8172 12.432 59.6572 12.176 58.5052 11.952C57.3532 11.712 56.3372 11.528 55.4572 11.4L56.5612 8.49597ZM55.3372 15.36C56.1532 15.488 57.0812 15.656 58.1212 15.864C59.1612 16.072 60.2412 16.304 61.3612 16.56C62.4972 16.816 63.6092 17.08 64.6972 17.352C65.7852 17.624 66.7932 17.896 67.7212 18.168C68.6652 18.44 69.4652 18.704 70.1212 18.96L68.8012 21.96C68.1612 21.688 67.3692 21.408 66.4252 21.12C65.4812 20.848 64.4572 20.576 63.3532 20.304C62.2492 20.016 61.1372 19.752 60.0172 19.512C58.8972 19.256 57.8252 19.032 56.8012 18.84C55.7932 18.648 54.9052 18.496 54.1372 18.384L55.3372 15.36ZM78.9052 4.53597C79.3372 4.58397 79.8092 4.62397 80.3212 4.65597C80.8492 4.67197 81.3132 4.67997 81.7132 4.67997C82.0492 4.67997 82.4972 4.67997 83.0572 4.67997C83.6172 4.67997 84.2332 4.67997 84.9052 4.67997C85.5772 4.67997 86.2572 4.67997 86.9452 4.67997C87.6492 4.67997 88.3132 4.67997 88.9372 4.67997C89.5772 4.67997 90.1372 4.67997 90.6172 4.67997C91.0972 4.67997 91.4412 4.67997 91.6492 4.67997C92.1292 4.67997 92.6092 4.66397 93.0892 4.63197C93.5692 4.59997 93.9772 4.56797 94.3132 4.53597V8.01597C93.9772 7.99997 93.5532 7.98397 93.0412 7.96797C92.5292 7.93597 92.0652 7.91997 91.6492 7.91997C91.4412 7.91997 91.0812 7.91997 90.5692 7.91997C90.0732 7.91997 89.4892 7.91997 88.8172 7.91997C88.1452 7.91997 87.4412 7.91997 86.7052 7.91997C85.9852 7.91997 85.2892 7.91997 84.6172 7.91997C83.9452 7.91997 83.3532 7.91997 82.8412 7.91997C82.3292 7.91997 81.9612 7.91997 81.7372 7.91997C81.2732 7.91997 80.7852 7.92797 80.2732 7.94397C79.7612 7.95997 79.3052 7.98397 78.9052 8.01597V4.53597ZM76.8892 16.272C77.3692 16.304 77.8652 16.336 78.3772 16.368C78.9052 16.4 79.4092 16.416 79.8892 16.416C80.0972 16.416 80.4812 16.416 81.0412 16.416C81.6012 16.416 82.2572 16.416 83.0092 16.416C83.7772 16.416 84.6012 16.416 85.4812 16.416C86.3612 16.416 87.2332 16.416 88.0972 16.416C88.9772 16.416 89.7932 16.416 90.5452 16.416C91.3132 16.416 91.9692 16.416 92.5132 16.416C93.0732 16.416 93.4572 16.416 93.6652 16.416C94.0812 16.416 94.5212 16.408 94.9852 16.392C95.4652 16.36 95.9052 16.32 96.3052 16.272V19.944C95.8892 19.896 95.4332 19.864 94.9372 19.848C94.4412 19.816 94.0172 19.8 93.6652 19.8C93.4572 19.8 93.0732 19.8 92.5132 19.8C91.9692 19.8 91.3132 19.8 90.5452 19.8C89.7932 19.8 88.9772 19.8 88.0972 19.8C87.2332 19.8 86.3612 19.8 85.4812 19.8C84.6012 19.8 83.7772 19.8 83.0092 19.8C82.2572 19.8 81.6012 19.8 81.0412 19.8C80.4812 19.8 80.0972 19.8 79.8892 19.8C79.4092 19.8 78.8972 19.816 78.3532 19.848C77.8252 19.864 77.3372 19.896 76.8892 19.944V16.272ZM121.745 4.58397C121.617 4.74397 121.457 4.95197 121.265 5.20797C121.073 5.44797 120.921 5.65597 120.809 5.83197C120.441 6.45597 119.953 7.17597 119.345 7.99197C118.737 8.79197 118.065 9.59197 117.329 10.392C116.593 11.176 115.833 11.848 115.049 12.408L112.553 10.416C113.033 10.128 113.505 9.79197 113.969 9.40797C114.433 9.02397 114.857 8.62397 115.241 8.20797C115.641 7.77597 115.985 7.36797 116.273 6.98397C116.577 6.59997 116.809 6.25597 116.969 5.95197C116.761 5.95197 116.409 5.95197 115.913 5.95197C115.417 5.95197 114.825 5.95197 114.137 5.95197C113.449 5.95197 112.705 5.95197 111.905 5.95197C111.121 5.95197 110.337 5.95197 109.553 5.95197C108.769 5.95197 108.025 5.95197 107.321 5.95197C106.633 5.95197 106.033 5.95197 105.521 5.95197C105.025 5.95197 104.673 5.95197 104.465 5.95197C103.969 5.95197 103.497 5.96797 103.049 5.99997C102.601 6.03197 102.097 6.07197 101.537 6.11997V2.78397C102.001 2.84797 102.481 2.90397 102.977 2.95197C103.473 2.99997 103.969 3.02397 104.465 3.02397C104.673 3.02397 105.041 3.02397 105.569 3.02397C106.097 3.02397 106.721 3.02397 107.441 3.02397C108.177 3.02397 108.953 3.02397 109.769 3.02397C110.601 3.02397 111.425 3.02397 112.241 3.02397C113.073 3.02397 113.841 3.02397 114.545 3.02397C115.265 3.02397 115.873 3.02397 116.369 3.02397C116.881 3.02397 117.225 3.02397 117.401 3.02397C117.625 3.02397 117.897 3.01597 118.217 2.99997C118.537 2.98397 118.849 2.95997 119.153 2.92797C119.473 2.89597 119.705 2.85597 119.849 2.80797L121.745 4.58397ZM111.953 7.82397C111.953 9.00797 111.929 10.152 111.881 11.256C111.833 12.36 111.697 13.424 111.473 14.448C111.265 15.456 110.921 16.416 110.441 17.328C109.977 18.24 109.329 19.104 108.497 19.92C107.665 20.736 106.601 21.488 105.305 22.176L102.497 19.896C102.881 19.768 103.289 19.6 103.721 19.392C104.153 19.168 104.585 18.896 105.017 18.576C105.785 18.048 106.401 17.488 106.865 16.896C107.345 16.304 107.713 15.664 107.969 14.976C108.225 14.272 108.401 13.512 108.497 12.696C108.593 11.864 108.641 10.96 108.641 9.98397C108.641 9.61597 108.633 9.26397 108.617 8.92797C108.601 8.57597 108.553 8.20797 108.473 7.82397H111.953ZM141.041 0.599969C141.249 0.903969 141.465 1.24797 141.689 1.63197C141.929 2.01597 142.153 2.39997 142.361 2.78397C142.569 3.15197 142.745 3.47997 142.889 3.76797L140.873 4.60797C140.713 4.28797 140.529 3.94397 140.321 3.57597C140.129 3.20797 139.921 2.83997 139.697 2.47197C139.489 2.08797 139.281 1.73597 139.073 1.41597L141.041 0.599969ZM144.401 -3.05176e-05C144.609 0.28797 144.833 0.62397 145.073 1.00797C145.313 1.39197 145.545 1.77597 145.769 2.15997C145.993 2.54397 146.177 2.87997 146.321 3.16797L144.329 4.03197C144.057 3.53597 143.745 2.98397 143.393 2.37597C143.057 1.76797 142.729 1.23997 142.409 0.791969L144.401 -3.05176e-05ZM143.537 5.13597C143.425 5.35997 143.321 5.63197 143.225 5.95197C143.145 6.25597 143.073 6.53597 143.009 6.79197C142.865 7.38397 142.689 8.04797 142.481 8.78397C142.289 9.50397 142.041 10.256 141.737 11.04C141.449 11.824 141.105 12.6 140.705 13.368C140.321 14.136 139.881 14.856 139.385 15.528C138.665 16.488 137.825 17.384 136.865 18.216C135.921 19.048 134.849 19.8 133.649 20.472C132.465 21.144 131.161 21.712 129.737 22.176L127.121 19.296C128.721 18.912 130.097 18.44 131.249 17.88C132.417 17.32 133.425 16.68 134.273 15.96C135.121 15.24 135.873 14.472 136.529 13.656C137.057 12.984 137.513 12.256 137.897 11.472C138.281 10.688 138.593 9.90397 138.833 9.11997C139.073 8.31997 139.241 7.57597 139.337 6.88797C139.113 6.88797 138.721 6.88797 138.161 6.88797C137.601 6.88797 136.953 6.88797 136.217 6.88797C135.481 6.88797 134.705 6.88797 133.889 6.88797C133.073 6.88797 132.289 6.88797 131.537 6.88797C130.785 6.88797 130.105 6.88797 129.497 6.88797C128.905 6.88797 128.465 6.88797 128.177 6.88797C127.617 6.88797 127.081 6.89597 126.569 6.91197C126.057 6.92797 125.641 6.95197 125.321 6.98397V3.59997C125.561 3.63197 125.849 3.66397 126.185 3.69597C126.537 3.72797 126.889 3.75197 127.241 3.76797C127.609 3.78397 127.921 3.79197 128.177 3.79197C128.433 3.79197 128.801 3.79197 129.281 3.79197C129.761 3.79197 130.305 3.79197 130.913 3.79197C131.537 3.79197 132.185 3.79197 132.857 3.79197C133.545 3.79197 134.225 3.79197 134.897 3.79197C135.585 3.79197 136.225 3.79197 136.817 3.79197C137.409 3.79197 137.921 3.79197 138.353 3.79197C138.785 3.79197 139.097 3.79197 139.289 3.79197C139.529 3.79197 139.817 3.78397 140.153 3.76797C140.505 3.75197 140.841 3.69597 141.161 3.59997L143.537 5.13597ZM166.097 2.20797C166.081 2.54397 166.057 2.91197 166.025 3.31197C166.009 3.69597 166.001 4.12797 166.001 4.60797C166.001 5.02397 166.001 5.52797 166.001 6.11997C166.001 6.71197 166.001 7.30397 166.001 7.89597C166.001 8.47197 166.001 8.95997 166.001 9.35997C166.001 10.64 165.937 11.76 165.809 12.72C165.697 13.68 165.521 14.52 165.281 15.24C165.041 15.96 164.745 16.6 164.393 17.16C164.057 17.704 163.665 18.224 163.217 18.72C162.689 19.296 162.081 19.816 161.393 20.28C160.705 20.728 160.009 21.104 159.305 21.408C158.617 21.728 157.977 21.984 157.385 22.176L154.865 19.536C156.065 19.264 157.145 18.888 158.105 18.408C159.081 17.912 159.929 17.28 160.649 16.512C161.065 16.048 161.401 15.584 161.657 15.12C161.913 14.656 162.105 14.144 162.233 13.584C162.377 13.008 162.473 12.36 162.521 11.64C162.585 10.92 162.617 10.096 162.617 9.16797C162.617 8.75197 162.617 8.25597 162.617 7.67997C162.617 7.10397 162.617 6.53597 162.617 5.97597C162.617 5.41597 162.617 4.95997 162.617 4.60797C162.617 4.12797 162.601 3.69597 162.569 3.31197C162.553 2.91197 162.521 2.54397 162.473 2.20797H166.097ZM154.961 2.39997C154.945 2.68797 154.929 2.97597 154.913 3.26397C154.897 3.53597 154.889 3.86397 154.889 4.24797C154.889 4.42397 154.889 4.71197 154.889 5.11197C154.889 5.51197 154.889 5.98397 154.889 6.52797C154.889 7.05597 154.889 7.61597 154.889 8.20797C154.889 8.78397 154.889 9.34397 154.889 9.88797C154.889 10.432 154.889 10.928 154.889 11.376C154.889 11.808 154.889 12.136 154.889 12.36C154.889 12.664 154.897 13.016 154.913 13.416C154.929 13.816 154.945 14.16 154.961 14.448H151.481C151.497 14.224 151.521 13.904 151.553 13.488C151.585 13.072 151.601 12.688 151.601 12.336C151.601 12.112 151.601 11.784 151.601 11.352C151.601 10.92 151.601 10.432 151.601 9.88797C151.601 9.32797 151.601 8.75997 151.601 8.18397C151.601 7.59197 151.601 7.03197 151.601 6.50397C151.601 5.97597 151.601 5.51197 151.601 5.11197C151.601 4.71197 151.601 4.42397 151.601 4.24797C151.601 4.02397 151.593 3.73597 151.577 3.38397C151.561 3.01597 151.537 2.68797 151.505 2.39997H154.961Z" fill="#49D279"/>
</svg>
