<svg width="188" height="42" viewBox="0 0 188 42" fill="none" xmlns="http://www.w3.org/2000/svg">
<path d="M183.5 6.5V37.5H7.5V6.5H183.5Z" fill="#010101" stroke="#373838"/>
<path d="M27.38 30L21.738 23.266H26.236L31.124 29.038V30H27.38ZM12.456 30V11.306H27.536C28.1947 11.306 28.8013 11.4707 29.356 11.8C29.9107 12.1293 30.3527 12.5713 30.682 13.126C31.0113 13.6633 31.176 14.2613 31.176 14.92V19.964C31.176 20.6227 31.0113 21.2293 30.682 21.784C30.3527 22.3387 29.9107 22.7807 29.356 23.11C28.8013 23.422 28.1947 23.578 27.536 23.578L15.888 23.604V30H12.456ZM16.2 20.12H27.38C27.4667 20.12 27.5447 20.094 27.614 20.042C27.6833 19.99 27.718 19.9207 27.718 19.834V15.05C27.718 14.9633 27.6833 14.894 27.614 14.842C27.5447 14.7727 27.4667 14.738 27.38 14.738H16.2C16.1133 14.738 16.0353 14.7727 15.966 14.842C15.914 14.894 15.888 14.9633 15.888 15.05V19.834C15.888 19.9207 15.914 19.99 15.966 20.042C16.0353 20.094 16.1133 20.12 16.2 20.12ZM37.3691 30C36.7104 30 36.1124 29.8353 35.5751 29.506C35.0377 29.1767 34.6044 28.7433 34.2751 28.206C33.9457 27.6687 33.7811 27.0707 33.7811 26.412V18.508C33.7811 17.8493 33.9457 17.2513 34.2751 16.714C34.6044 16.1767 35.0377 15.7433 35.5751 15.414C36.1124 15.0847 36.7104 14.92 37.3691 14.92H45.5071C46.1657 14.92 46.7637 15.0847 47.3011 15.414C47.8557 15.7433 48.2891 16.1767 48.6011 16.714C48.9304 17.2513 49.0951 17.8493 49.0951 18.508V24.176H37.1871V26.282C37.1871 26.3687 37.2131 26.4467 37.2651 26.516C37.3344 26.568 37.4124 26.594 37.4991 26.594H49.0951V30H37.3691ZM37.1871 21.108H45.6891V18.638C45.6891 18.5513 45.6544 18.482 45.5851 18.43C45.5331 18.3607 45.4637 18.326 45.3771 18.326H37.4991C37.4124 18.326 37.3344 18.3607 37.2651 18.43C37.2131 18.482 37.1871 18.5513 37.1871 18.638V21.108ZM51.861 30V14.92H63.587C64.2457 14.92 64.8437 15.0847 65.381 15.414C65.9357 15.7433 66.369 16.1767 66.681 16.714C67.0104 17.2513 67.175 17.8493 67.175 18.508V30H63.769V18.638C63.769 18.5513 63.7344 18.482 63.665 18.43C63.613 18.3607 63.5437 18.326 63.457 18.326H55.579C55.4924 18.326 55.4144 18.3607 55.345 18.43C55.293 18.482 55.267 18.5513 55.267 18.638V30H51.861ZM72.7465 30C72.0705 30 71.4639 29.8353 70.9265 29.506C70.3892 29.1767 69.9559 28.7433 69.6265 28.206C69.3145 27.6687 69.1585 27.0707 69.1585 26.412V18.508C69.1585 17.8493 69.3145 17.2513 69.6265 16.714C69.9559 16.1767 70.3892 15.7433 70.9265 15.414C71.4639 15.0847 72.0705 14.92 72.7465 14.92H81.0925V9.98H84.4985V30H72.7465ZM72.9025 26.594H80.7805C80.8672 26.594 80.9365 26.568 80.9885 26.516C81.0579 26.4467 81.0925 26.3687 81.0925 26.282V18.638C81.0925 18.5513 81.0579 18.482 80.9885 18.43C80.9365 18.3607 80.8672 18.326 80.7805 18.326H72.9025C72.8159 18.326 72.7379 18.3607 72.6685 18.43C72.6165 18.482 72.5905 18.5513 72.5905 18.638V26.282C72.5905 26.3687 72.6165 26.4467 72.6685 26.516C72.7379 26.568 72.8159 26.594 72.9025 26.594ZM90.2578 30C89.5991 30 89.0011 29.8353 88.4638 29.506C87.9264 29.1767 87.4931 28.7433 87.1638 28.206C86.8344 27.6687 86.6698 27.0707 86.6698 26.412V18.508C86.6698 17.8493 86.8344 17.2513 87.1638 16.714C87.4931 16.1767 87.9264 15.7433 88.4638 15.414C89.0011 15.0847 89.5991 14.92 90.2578 14.92H98.3958C99.0544 14.92 99.6524 15.0847 100.19 15.414C100.744 15.7433 101.178 16.1767 101.49 16.714C101.819 17.2513 101.984 17.8493 101.984 18.508V24.176H90.0758V26.282C90.0758 26.3687 90.1018 26.4467 90.1538 26.516C90.2231 26.568 90.3011 26.594 90.3878 26.594H101.984V30H90.2578ZM90.0758 21.108H98.5778V18.638C98.5778 18.5513 98.5431 18.482 98.4737 18.43C98.4218 18.3607 98.3524 18.326 98.2658 18.326H90.3878C90.3011 18.326 90.2231 18.3607 90.1538 18.43C90.1018 18.482 90.0758 18.5513 90.0758 18.638V21.108ZM104.545 30V18.508C104.545 17.8493 104.71 17.2513 105.039 16.714C105.369 16.1767 105.802 15.7433 106.339 15.414C106.894 15.0847 107.492 14.92 108.133 14.92H116.505V18.326H108.263C108.177 18.326 108.099 18.3607 108.029 18.43C107.977 18.482 107.951 18.5513 107.951 18.638V30H104.545ZM121.743 30C121.085 30 120.487 29.8353 119.949 29.506C119.412 29.1767 118.979 28.7433 118.649 28.206C118.32 27.6687 118.155 27.0707 118.155 26.412V10.292H121.561V14.92H127.437V18.326H121.561V26.282C121.561 26.3687 121.587 26.4467 121.639 26.516C121.709 26.568 121.787 26.594 121.873 26.594H127.437V30H121.743ZM129.707 30V18.508C129.707 17.8493 129.872 17.2513 130.201 16.714C130.531 16.1767 130.964 15.7433 131.501 15.414C132.056 15.0847 132.654 14.92 133.295 14.92H141.667V18.326H133.425C133.339 18.326 133.261 18.3607 133.191 18.43C133.139 18.482 133.113 18.5513 133.113 18.638V30H129.707ZM146.904 30C146.246 30 145.648 29.8353 145.11 29.506C144.573 29.1767 144.14 28.7433 143.81 28.206C143.481 27.6687 143.316 27.0707 143.316 26.412V18.508C143.316 17.8493 143.481 17.2513 143.81 16.714C144.14 16.1767 144.573 15.7433 145.11 15.414C145.648 15.0847 146.246 14.92 146.904 14.92H155.042C155.701 14.92 156.299 15.0847 156.836 15.414C157.391 15.7433 157.824 16.1767 158.136 16.714C158.466 17.2513 158.63 17.8493 158.63 18.508V26.412C158.63 27.0707 158.466 27.6687 158.136 28.206C157.824 28.7433 157.4 29.1767 156.862 29.506C156.325 29.8353 155.718 30 155.042 30H146.904ZM147.034 26.594H154.912C154.999 26.594 155.068 26.568 155.12 26.516C155.19 26.4467 155.224 26.3687 155.224 26.282V18.638C155.224 18.5513 155.19 18.482 155.12 18.43C155.068 18.3607 154.999 18.326 154.912 18.326H147.034C146.948 18.326 146.87 18.3607 146.8 18.43C146.748 18.482 146.722 18.5513 146.722 18.638V26.282C146.722 26.3687 146.748 26.4467 146.8 26.516C146.87 26.568 146.948 26.594 147.034 26.594ZM160.761 30V14.92H172.487C173.146 14.92 173.744 15.0847 174.281 15.414C174.836 15.7433 175.269 16.1767 175.581 16.714C175.911 17.2513 176.075 17.8493 176.075 18.508V30H172.669V18.638C172.669 18.5513 172.635 18.482 172.565 18.43C172.513 18.3607 172.444 18.326 172.357 18.326H164.479C164.393 18.326 164.315 18.3607 164.245 18.43C164.193 18.482 164.167 18.5513 164.167 18.638V30H160.761Z" fill="#AFAFAF"/>
</svg>
